# xmcd
#
# Track frame offsets:
# 150
# 24450
# 46950
# 64950
# 84600
# 106950
# 124200
# 139425
# 157500
# 176400
# 198750
# 220425
# 233775
# 252075
#
# Disc length: 3597 seconds
#
#
# Revision: 0
# Processed by: cddbd v1.5.1PL0 Copyright (c) Steve Scherf et al.
# Submitted via: FreeRIP 2.91 
#
DISCID=bd0e0b0e
DTITLE=Various Artist - Ripley Blues The first Five Years
DYEAR=2004
DGENRE=Blues
TTITLE0=RESTING IN THE BLUES_THE BLUES CORPORATION
TTITLE1=ONE MORE TIME_MARCUS MALONE
TTITLE2=PLEASE DONT TELL ME ABOUT THE NEWS_THE YARDBIRDS
TTITLE3=TEASE YOU_GILES
TTITLE4=GOT TO BE THE BLUES_THE BLUES BAND
TTITLE5=SHE CRIES_IAN PARKER
TTITLE6=MATCHBOX_THE CAHONIES
TTITLE7=BACK IN THE NIGHT_DR FEELGOOD
TTITLE8=STRANGE FEELING_DERRIN NAUENDORF
TTITLE9=SHE FILLS MY CUP_THE NIMMO BROTHERS
TTITLE10=BLUS AS BLUES CAN GET_CHRIS FARLOWE
TTITLE11=WALLS OF STEEL_JOHN CRAMPTON
TTITLE12=YOU CAN TALK_THE NORMAN BEAKER BAND
TTITLE13=GO GIRL_NINE BELOW ZERO
EXTD=
EXTT0=
EXTT1=
EXTT2=
EXTT3=
EXTT4=
EXTT5=
EXTT6=
EXTT7=
EXTT8=
EXTT9=
EXTT10=
EXTT11=
EXTT12=
EXTT13=
PLAYORDER=
